<mxfile host="app.diagrams.net" modified="2024-03-29T17:22:55.121Z" agent="Mozilla/5.0 (Macintosh; Intel Mac OS X 10_15_7) AppleWebKit/537.36 (KHTML, like Gecko) Chrome/123.0.0.0 Safari/537.36" version="24.0.7" etag="W6USGoWDwq24vOJhXmYB" type="github">
  <diagram name="Page-1" id="3eWFbiQ2t1sCWFSi22gC">
    <mxGraphModel>
      <root>
        <mxCell id="0" />
        <mxCell id="1" parent="0" />
      </root>
    </mxGraphModel>
  </diagram>
</mxfile>
